<?xml version="1.0" encoding="UTF-8"?><svg id="Layer_2" xmlns="http://www.w3.org/2000/svg" xmlns:xlink="http://www.w3.org/1999/xlink" viewBox="0 0 602.71 711.44"><defs><style>.cls-1{fill:#35f5c6;}.cls-2{fill:#2f455c;}.cls-3{fill:url(#linear-gradient);}</style><linearGradient id="linear-gradient" x1="0" y1="319.32" x2="576.93" y2="319.32" gradientUnits="userSpaceOnUse"><stop offset="0" stop-color="#1dcdfe"/><stop offset=".11" stop-color="#1dcdf4"/><stop offset=".3" stop-color="#1ecedb"/><stop offset=".54" stop-color="#21d0b3"/><stop offset=".9" stop-color="#34f5c6"/><stop offset=".99" stop-color="#1dcdfe"/></linearGradient></defs><g id="Layer_1-2"><path class="cls-3" d="m373.22,171.78c-4.12-1.53-27.99-10.17-54.67-10.58-63.2-.98-109.98,44.71-113.31,48.06-11.25,11.3-48.01,51.58-47.62,112.43.37,57.64,33.92,108.21,79.36,134.92,0,0,62.2,36.46,133.59,13.23,12.32-4.01,27.84-9.06,41.57-21.17,3.03-2.67,7.33-6.89,15.2-13.38,6.6-5.45,15.46-12.3,20.54-15.53,23.02-14.68,54.05-9.81,56.29-9.44,34.45,5.82,52.94,30.45,56.13,34.83,2.83,3.89,20.08,28.45,16.02,61.87-2.47,20.35-11.66,34.23-16.62,41.52-.76,1.12-1.65,2.38-2.73,3.78-17.8,23.04-53.66,40.27-63.05,44.63-30.65,14.24-45.97,21.36-68.54,27.85-8.74,2.51-62.47,17.51-123.58,13.02-135.46-9.95-220.15-103.27-220.15-103.27C6.63,452.1-18.39,332.41,13.66,227.33,44.67,125.7,118.8,71.47,144.39,54.5c17.53-11.63,104.28-66.71,219.57-52.03,0,0,99.69,12.7,169.31,81.13,18.98,18.66,30.33,36.32,33.95,57.76,1.07,6.32,6.91,40.88-16.75,67.9-21.94,25.06-56.81,29.43-80.24,22.93-18.26-5.07-34.56-18.12-38.36-21.16-10.93-8.76-12.56-13.12-24.25-21.6-13.52-9.81-25.75-14.44-34.39-17.64Z"/><circle class="cls-1" cx="489.65" cy="496.42" r="87.3"/><path class="cls-2" d="m285.03,661.28c1.45.23,1.74,1.36,1.62,2.16l-7.13,44.35-4.75-.76,3.24-20.13c.03-.6-.36-1.14-.95-1.24l-5.15-.83-3.41,21.18-4.75-.76,7.13-44.35c.13-.79.76-1.77,2.21-1.54l2.84.46-3,18.68c-.21,1.32.26,1.73,1.38,1.92l4.62.74,3.27-20.33,2.84.46Z"/><path class="cls-2" d="m342.16,706.7c-.54,1.2-1.34,3.07-1.54,3.47-.34.6-1.07,1.27-2.61,1.27l-10.7-.02.07-45.46c.07-.73.67-1.34,1.47-1.33l12.5.02-1.61,3.47c-.27.6-1.01,1.34-2.54,1.33h-3.88c-.67,0-1.14.46-1.14,1.13l-.02,13.9h7.22c-.54,1.21-1.34,3.15-1.54,3.55-.34.6-1,1.27-2.54,1.27h-2.01c-.6,0-1.14.53-1.14,1.13l-.03,16.24,10.03.02Z"/><path class="cls-2" d="m401.95,705.52l-5.22.79-9-31.23.67,32.49-5.22.79v-47.33s2.57-.39,2.57-.39c1.98-.3,2.5.9,2.89,2.13l13.31,42.74Z"/><path class="cls-2" d="m458.39,686.27c-.16,1.31-.38,3.33-.46,3.78-.14.67-.65,1.53-2.12,1.98l-11,3.36-13.68-44.75,3.2-.98c.79-.17,1.6.21,1.84.98l11.86,38.81,10.36-3.17Z"/><path class="cls-2" d="m481.54,631.48c1.27-.6,2.21.14,2.55.87l19.13,40.65-3.08,1.45c-1.03.48-1.49-.04-1.7-.31l-19.5-41.43,2.6-1.22Z"/><path class="cls-2" d="m557.7,641.35l-1.83,1.22c-2.17,1.45-3.65-.05-4.34-.72l-17.12-16.38,14.51,21.74-4,2.67-25.98-38.92,1.83-1.22c2.22-1.48,3.32-.69,4.28.28l17.62,17.49-14.96-22.41,4-2.67,25.98,38.92Z"/><path class="cls-2" d="m581.8,577.71c1.09,1.18,1.05,2.12.79,2.82-.11.37-.9,2.28-1.47,3.54l-7.25-7.86c-.95-1.03-2.56-1.1-3.59-.14-1.03.95-1.1,2.56-.14,3.59l23.21,25.15c.95,1.03,2.56,1.1,3.59.14,1.03-.95,1.1-2.56.14-3.59l-9.48-10.27-.15.14c-.79.72-2.32.05-2.32.05l-3.45-1.37,4.42-4.08c1.08-1,2.26-1,3.49.33l11.56,12.53c2.18,2.36,2.03,6.04-.24,8.32l-2.16,2c-2.41,2.22-6.19,2.07-8.41-.34l-24.3-26.33c-2.22-2.41-2.07-6.19.34-8.41l2.16-2c2.45-2.08,6.13-1.93,8.31.43l4.94,5.35Z"/></g></svg>