<?xml version="1.0" encoding="UTF-8"?><svg xmlns="http://www.w3.org/2000/svg" xmlns:xlink="http://www.w3.org/1999/xlink" viewBox="0 0 1200 628"><defs><style>.cls-1{opacity:.4;}.cls-1,.cls-2,.cls-3,.cls-4,.cls-5{mix-blend-mode:multiply;}.cls-6{fill:#fff;}.cls-2{opacity:.7;}.cls-7{fill:#7962e8;}.cls-8{fill:#febb5b;}.cls-3{opacity:.2;}.cls-9{clip-path:url(#clippath-2);}.cls-10{isolation:isolate;}.cls-11{fill:#62d1b0;}.cls-12{fill:#c16c72;}.cls-13{fill:#ffd7f0;}.cls-14{fill:#998eed;}.cls-15{clip-path:url(#clippath-1);}.cls-16{fill:#e95777;}.cls-4{opacity:.3;}.cls-17{fill:#f7adad;}.cls-18{fill:#d33d65;}.cls-19{clip-path:url(#clippath);}.cls-20{fill:none;}.cls-21{fill:#723948;}.cls-22{fill:#029b88;}.cls-23{fill:#914350;}.cls-24{fill:#ffd7ee;}.cls-25{fill:#ed79b1;}.cls-26{fill:#5c42cc;}</style><clipPath id="clippath"><rect class="cls-20" width="1200" height="628"/></clipPath><clipPath id="clippath-1"><rect class="cls-20" x="103.37" y="258.74" width="259.9" height="369.26"/></clipPath><clipPath id="clippath-2"><rect class="cls-20" x="840.55" y="227.72" width="256.07" height="400.28"/></clipPath></defs><g class="cls-10"><g id="BACKGROUND"><rect class="cls-24" width="1200" height="628"/><g class="cls-19"><g class="cls-5"><path class="cls-13" d="m1229.51,274.05l-1.27-1.2,2.43-2.57c-17.07-2.31-33.17-11.01-44.41-24.07-15.9-18.46-21.19-43.93-24.27-66.4-.49-3.55-.95-7.18-1.39-10.69-2.51-19.77-5.11-40.22-13.63-58.33-12.04-25.58-36.61-45.51-64.13-52-9.3-2.19-19.06-2.99-28.49-3.76-11.03-.9-22.44-1.83-33.26-5-15.72-4.61-30.35-14.59-41.19-28.12-10.84-13.53-17.4-29.98-18.47-46.33l1.74-.11c2.16,32.95,26.72,63.6,58.41,72.89,10.65,3.12,21.96,4.04,32.91,4.94,9.5.78,19.32,1.58,28.75,3.8,13.85,3.27,27.2,9.88,38.6,19.14,11.41,9.25,20.64,20.95,26.7,33.82,8.64,18.36,11.26,38.95,13.78,58.85.45,3.51.91,7.13,1.39,10.68,3.04,22.22,8.26,47.38,23.86,65.49,11.33,13.16,27.74,21.8,45.01,23.68l1.74.19-4.82,5.1Z"/></g><g class="cls-5"><path class="cls-13" d="m1256.01,251.53l-1.33-1.13,2.29-2.69c-17.16-1.41-33.7-9.27-45.61-21.72-16.84-17.61-23.45-42.76-27.69-65.04-.67-3.52-1.32-7.12-1.95-10.61-3.54-19.61-7.2-39.9-16.65-57.54-13.35-24.92-38.93-43.54-66.75-48.59-9.4-1.71-19.19-2-28.65-2.27-11.07-.33-22.51-.66-33.47-3.26-15.94-3.78-31.07-12.99-42.6-25.94-11.53-12.94-18.94-29.03-20.85-45.3l1.73-.2c3.87,32.79,29.99,62.12,62.12,69.75,10.79,2.56,22.15,2.89,33.12,3.22,9.53.28,19.37.57,28.91,2.3,14,2.54,27.67,8.45,39.55,17.1,11.87,8.64,21.7,19.84,28.42,32.38,9.59,17.89,13.27,38.31,16.83,58.06.63,3.48,1.28,7.07,1.95,10.59,4.2,22.03,10.71,46.88,27.24,64.16,12.01,12.55,28.84,20.32,46.18,21.31l1.75.1-4.54,5.34Z"/></g><g class="cls-5"><path class="cls-13" d="m156.29,645.29l-1.73-.23c6-44.24-14.91-91.12-50.83-114-4.8-3.06-9.95-5.79-14.93-8.43-10.51-5.57-21.38-11.33-29.64-20.51-12.7-14.11-17.11-33.62-21.37-52.49-2.77-12.27-5.63-24.95-10.74-36.19-7.09-15.6-18.84-28.77-33.07-37.09l.88-1.51c14.55,8.5,26.55,21.95,33.78,37.87,5.18,11.4,8.06,24.17,10.85,36.52,4.41,19.51,8.57,37.94,20.96,51.71,8.06,8.95,18.79,14.64,29.17,20.14,5.01,2.66,10.2,5.4,15.05,8.5,36.48,23.24,57.71,70.82,51.63,115.71Z"/></g><g class="cls-5"><path class="cls-13" d="m130.7,662.33l-1.71-.35c9.03-43.72-8.59-91.93-42.85-117.24-4.58-3.38-9.53-6.46-14.32-9.44-10.1-6.28-20.55-12.78-28.16-22.51-11.7-14.95-14.75-34.72-17.7-53.84-1.92-12.43-3.9-25.28-8.22-36.84-6-16.05-16.81-30-30.44-39.28l.98-1.44c13.93,9.48,24.97,23.72,31.09,40.11,4.38,11.73,6.38,24.67,8.31,37.18,3.05,19.77,5.93,38.44,17.35,53.03,7.42,9.48,17.73,15.9,27.71,22.1,4.82,3,9.8,6.09,14.43,9.52,34.79,25.7,52.69,74.63,43.52,118.99Z"/></g></g></g><g id="OBJECTS"><g class="cls-15"><path class="cls-12" d="m183.56,438.92c-22.9-30.93-36.77-60.42-36.25-86.95.64-32.82,21.92-61.49,53.22-71.38,56.65-17.9,85.56,11.45,85.56,11.45,0,0,23.59,27.94,25.46,51.72,1.01,12.87-7.81,17.07,2.27,28.47,7.31,8.28,15.39,15.26,19.28,18.46,1.52,1.25,2.02,3.37,1.2,5.15-4.38,9.53-9.83,8.94-11.14,11.9,0,0,3.92,58.92-16.22,60.72-7.35.66-17.51-.44-28.13-2.68-5.53,10.68-12.24,28.97-14.89,43.22-.83,4.44-3.03,16.42-.29,26.51,4.61,16.98,15.65,33.26,15.65,33.26l-114.69-28.01c32.8-43.41,18.98-101.85,18.98-101.85Z"/><path class="cls-7" d="m296.92,335.38c-4.56-.61-8.14.17-12.16,1.77-1.78.79-3.51,1.78-5.23,2.69-5.41,3.05-10.66,6.63-14.84,11.52,0,0,.23.27.23.27,22.06-13.05,30.22-11.66,32.33-12.54,1.4-.64.52-3.62.52-3.62l-.86-.1Z"/><path class="cls-23" d="m278.81,465.8c-6.38-.18-12.71-1.37-18.86-3.17-3.08-.89-6.1-2.01-9.05-3.27-2.95-1.29-5.81-2.79-8.57-4.45-2.76-1.68-5.37-3.59-7.83-5.68-2.45-2.1-4.74-4.41-6.74-6.94-4.09-5-7.04-10.87-8.75-17,2.56,5.83,5.83,11.27,10.03,15.92.51.59,1.03,1.17,1.6,1.72.55.55,1.09,1.12,1.65,1.67,1.15,1.05,2.29,2.12,3.52,3.09,2.41,1.98,4.95,3.81,7.64,5.41,5.33,3.28,11.08,5.87,17.02,7.96,5.95,2.07,12.07,3.7,18.35,4.76Z"/><path class="cls-18" d="m316.16,423.73s-7.44-1.64-18.13-.82c-5.32.41-20.58,1.02-20.58,1.02,0,0,29.54,12.85,36.71,6.87,1.84-1.53,2-7.06,2-7.06Z"/><path class="cls-25" d="m303.74,425.78c2.81,1.81,5.26,3.82,7.59,6.28-8.86,3.35-33.87-8.14-33.87-8.14,0,0,11.05-.16,20.58-1.02,1.92.73,3.82,1.66,5.71,2.88Z"/><path class="cls-21" d="m292.2,352.13c2.98-.52,6.34,4.45,7.49,11.11,1.15,6.65-.33,12.46-3.31,12.98-2.98.52-6.34-4.45-7.49-11.11-.25-1.45-.37-2.86-.38-4.18l6.73,1.19-6.36-5.26c.56-2.64,1.73-4.45,3.33-4.73Z"/><path class="cls-6" d="m288.56,361.69v-.03s0,.02,0,.03h0Z"/><path class="cls-6" d="m288.87,358.24h0s0,.02,0,.02v-.02Z"/><path class="cls-11" d="m354.72,625.85c-7.07-39.45-77.61-105.89-77.61-105.89,6.29-20.1-7.83-30.97-7.83-30.97-47.48,5.68-82.92-25.78-82.92-25.78-19.88,18.6-6.55,34.51-6.55,34.51v.15c-15.44,7.36-48.77,60.67-46.48,119.27,3.15,80.89,31.34,132.46,49.15,259.59l143.74-.61c5.61-38.97,14.72-96.03,9.64-172.31l1.49-.56s24.44-37.96,17.37-77.41Z"/><g class="cls-4"><path class="cls-11" d="m213.68,497.68c6.65-1.89,12.47-6.25,16.19-11.9-26.38-7.36-43.5-22.55-43.5-22.55-19.88,18.6-6.55,34.51-6.55,34.51v.15c-14.28,6.81-43.86,52.93-46.42,106.19,4.53-12.93,10.38-25.53,17.11-37.69,12.94-23.88,29.12-48.68,55.9-56.26,17.84,6.72,37.07,12.2,55.76,10.92-17.93-3.22-34.95-11.01-48.49-23.36Z"/></g><g class="cls-2"><path class="cls-22" d="m184.98,499.65c1.65.76,3.2,1.69,4.82,2.52,1.6.84,3.22,1.66,4.85,2.43,3.25,1.59,6.55,3.05,9.89,4.42,6.68,2.74,13.52,5.07,20.48,6.92,6.96,1.88,14.05,3.24,21.21,4.16,7.16.88,14.39,1.29,21.64,1.23-7.22.61-14.52.58-21.76-.12-3.62-.35-7.22-.86-10.81-1.5-3.57-.68-7.13-1.45-10.65-2.39-3.51-.96-6.99-2.02-10.42-3.23-3.42-1.23-6.81-2.56-10.13-4.05-3.32-1.48-6.58-3.08-9.77-4.83-1.59-.88-3.16-1.79-4.71-2.72l-2.32-1.42c-.77-.47-1.51-1.02-2.31-1.42Z"/></g><g class="cls-2"><path class="cls-22" d="m261.25,515.5c.6-2.82.6-5.54.53-8.34-.04-1.4-.08-2.8-.09-4.22,0-1.42.03-2.86.26-4.29.36,1.4.64,2.79.85,4.2.21,1.41.37,2.83.4,4.28.03,1.44-.06,2.9-.34,4.34-.28,1.43-.78,2.85-1.62,4.04Z"/></g><g class="cls-2"><path class="cls-22" d="m243.27,514c.03-1.46.18-2.88.33-4.3l.47-4.22c.15-1.4.3-2.8.41-4.2l.32-4.28c.47,1.38.7,2.83.79,4.28.09,1.45.05,2.91-.11,4.35-.16,1.44-.44,2.87-.8,4.26-.37,1.4-.82,2.77-1.43,4.1Z"/></g><g class="cls-2"><path class="cls-22" d="m230.09,509.99c-.52-1.38-.81-2.83-.96-4.29-.15-1.46-.15-2.94-.01-4.41.14-1.47.43-2.92.85-4.32.42-1.41.99-2.77,1.76-4.02l-.67,4.27c-.21,1.41-.38,2.81-.52,4.21-.13,1.41-.24,2.81-.3,4.24l-.16,4.32Z"/></g><g class="cls-2"><path class="cls-22" d="m212.51,505.39c-.57-1.3-.88-2.69-1.03-4.1-.15-1.41-.13-2.85.06-4.26.19-1.41.55-2.8,1.07-4.12.13-.33.27-.66.42-.98l.49-.94c.19-.3.36-.61.56-.91.11-.15.23-.3.38-.42.15-.12.35-.19.53-.16-.35.1-.46.45-.55.75l-.26,1c-.18.67-.33,1.33-.49,1.99-.3,1.32-.53,2.65-.72,3.98-.18,1.33-.3,2.67-.37,4.03-.06,1.36-.06,2.72-.08,4.14Z"/></g><g class="cls-2"><path class="cls-22" d="m197.69,499.2c-.46-1.42-.61-2.95-.51-4.46.09-1.51.41-3.02.95-4.44.54-1.42,1.29-2.77,2.22-3.96.93-1.19,2.05-2.24,3.34-3-.89,1.2-1.7,2.39-2.42,3.63-.71,1.24-1.31,2.52-1.81,3.84-.5,1.32-.9,2.68-1.19,4.08-.29,1.4-.46,2.83-.59,4.32Z"/></g><g class="cls-2"><path class="cls-22" d="m185.22,494.43c-.54-1.64-.78-3.38-.79-5.12-.02-1.74.21-3.49.62-5.19.45-1.69,1.04-3.34,1.95-4.87.89-1.51,2.16-2.91,3.78-3.57-1.28,1.17-2.12,2.59-2.79,4.09-.32.76-.62,1.52-.86,2.32-.26.79-.5,1.58-.69,2.39-.42,1.6-.69,3.24-.9,4.89-.19,1.66-.27,3.34-.32,5.06Z"/></g><g class="cls-2"><path class="cls-22" d="m277.45,606.1c3.59,16.68,6.24,33.55,8.42,50.47,2.15,16.93,3.6,33.94,4.57,50.98l.55,12.79.21,12.8.05,3.2.03,1.6-.02,1.6-.09,6.4-.09,6.4-.06,3.2-.16,3.2c-.62,17.06-2.38,34.07-5.03,50.91l1.44-12.71.37-3.17c.12-1.06.26-2.11.32-3.18l.45-6.38.48-6.37c.16-2.12.35-4.24.4-6.38l.47-12.77.11-3.19v-3.19s.06-6.39.06-6.39l.05-6.39v-1.6s-.02-1.6-.02-1.6l-.07-3.19-.28-12.77-.61-12.76c-.85-17.01-2.32-34-4.23-50.93-.51-4.23-.98-8.46-1.53-12.69-.59-4.22-1.1-8.45-1.74-12.66-1.17-8.44-2.55-16.86-4.05-25.25Z"/></g><g class="cls-2"><path class="cls-22" d="m174.6,521.23c8.8-1.89,17.95-2.03,26.91-1.01,8.98,1.04,17.79,3.61,25.99,7.44,8.16,3.94,15.64,9.28,22.01,15.7,1.54,1.66,3.14,3.26,4.54,5.03.72.87,1.46,1.72,2.15,2.61l2.01,2.72.99,1.37.91,1.42,1.82,2.85c1.18,1.91,2.22,3.92,3.31,5.88l-1.81-2.84c-.61-.94-1.15-1.92-1.82-2.83l-1.94-2.74-.97-1.37-1.05-1.31-2.07-2.64c-.71-.86-1.47-1.68-2.21-2.53-1.44-1.72-3.07-3.25-4.63-4.84-6.44-6.17-13.78-11.41-21.85-15.19-4.01-1.93-8.18-3.54-12.45-4.81-4.27-1.29-8.65-2.17-13.07-2.84-4.42-.66-8.89-.96-13.37-.98-4.48-.05-8.96.22-13.41.9Z"/></g><path class="cls-7" d="m274.52,274.14c10.29.18,25.55-.28,33.07,6.73,7.61,7.09,9.27,18.48,9.01,28.87-.08,3.33-.33,6.72-1.52,9.83-2.68,6.97-10.42,11.6-17.82,10.67,5-4.36,5.82-11.69,6.3-18.31-3.2,12.85-15.66,21.68-28.56,24.69-6.16,1.44-12.67,1.81-18.8.24-6.13-1.57-11.86-5.21-15.22-10.57,2.99,1.74,6.84,1.34,9.95-.16,3.11-1.5,5.64-3.96,8.11-6.38,3.31-3.24,6.87-7.08,6.65-11.7l8.83-33.92Z"/><path class="cls-7" d="m131.49,288.91c-9.32,10.19-16.72,21.81-21.21,34.45-6.59,18.55-7.9,40.69,5.42,55.9,4.85,5.54,11.32,9.76,16.08,15.37,4.76,5.61,7.62,13.57,3.9,19.81-2.92,4.89-8.94,7.33-13.81,10.67-10.9,7.47-16.32,22.32-9.43,33.08,2.95,4.61,7.73,8.05,10.63,12.69,2.9,4.63,3.06,11.62-1.98,14.31,15.33,6.37,32.9,8.11,49.36,4.9-.27-4.25-.55-8.49-.82-12.74,3.29,3.61,5.93,7.73,7.78,12.12,14.23,1.02,28.64-2.22,41.25-8.35,3.22-1.57,6.49-3.46,8.18-6.42,1.69-2.96,1.13-7.25-2.08-8.85,5.21,6.45,16.37,6.42,23.72,2.06,7.35-4.37,11.74-11.78,15.68-18.95-3.25,2.87-8.87,2.32-12.38-.28-3.51-2.6-5.29-6.68-6.37-10.7,10.36,7.29,27.43,4.11,33.88-6.3-12.71,0-25.29-5.39-33.45-14.33-5.35-5.87-8.88-13.8-6.73-21.2,2.93-10.1,15.57-17.07,15.22-27.52-.34-10.22-13.38-18.08-11.48-28.15.85-4.48,4.62-8.06,8.84-10.44,4.22-2.38,8.98-3.82,13.4-5.86,17.62-8.14,28.93-26.56,27.37-44.6,0,0-109.32-47.16-160.98,9.34Z"/><path class="cls-26" d="m228.97,352.11c.53,2.31.25,4.76-.47,7.03-.36,1.14-.81,2.26-1.4,3.3-.29.52-.55,1.06-.87,1.57l-.97,1.51c-1.38,1.95-2.96,3.75-4.63,5.45-1.68,1.69-3.46,3.25-5.23,4.81-3.53,3.12-7.16,6.08-10.08,9.62-.76.87-1.41,1.79-2.08,2.72-.64.96-1.29,1.92-1.86,2.91-1.17,1.98-2.22,4.02-2.97,6.15-.77,2.12-1.24,4.33-1.23,6.52,0,2.19.61,4.32,1.73,6.18,1.14,1.85,2.77,3.42,4.63,4.68,1.87,1.28,3.93,2.19,6.12,3.2,2.15,1.05,4.29,2.26,6.08,3.99.88.86,1.67,1.86,2.23,3,.55,1.14.85,2.4.85,3.66-.01,1.26-.34,2.5-.89,3.6-.55,1.1-1.29,2.08-2.14,2.93-1.69,1.71-3.79,2.95-6.02,3.71,1.07-.48,2.09-1.08,3.03-1.77.94-.68,1.82-1.46,2.57-2.33,1.5-1.72,2.54-3.92,2.39-6.12-.06-1.09-.36-2.16-.89-3.12-.53-.96-1.26-1.8-2.09-2.54-1.68-1.47-3.71-2.57-5.81-3.5-1.04-.46-2.17-.88-3.26-1.39-1.09-.51-2.17-1.09-3.2-1.76-2.05-1.33-3.95-3.03-5.32-5.17-1.35-2.15-2.07-4.7-2.1-7.22-.03-2.52.49-4.98,1.31-7.28.84-2.3,1.96-4.45,3.2-6.51.61-1.04,1.29-2.02,1.96-3.02.72-.97,1.43-1.97,2.24-2.85,1.58-1.83,3.31-3.49,5.1-5.05,1.78-1.58,3.62-3.06,5.44-4.53,3.63-2.96,7.23-5.95,10.1-9.6l1.04-1.39c.34-.47.62-.97.94-1.46.64-.97,1.14-2.01,1.57-3.09.43-1.08.74-2.2.92-3.35.19-1.15.23-2.33.08-3.49Z"/><path class="cls-26" d="m230.55,282.29c-2.86,1.52-5.39,3.52-7.64,5.78-2.26,2.25-4.27,4.75-6.17,7.31-3.75,5.13-7,10.74-8.28,16.85-.33,1.52-.51,3.06-.56,4.6,0,1.54.08,3.08.39,4.59.25,1.52.74,3,1.29,4.45.31.71.6,1.44.98,2.13.33.71.73,1.39,1.12,2.07,3.26,5.43,7.88,10.02,12.33,14.69-5.04-4.02-10.05-8.28-13.75-13.8-1.84-2.74-3.27-5.84-3.97-9.14-.73-3.31-.61-6.76.05-10.04.7-3.28,1.97-6.39,3.53-9.3,1.61-2.88,3.45-5.61,5.54-8.13,2.06-2.53,4.29-4.93,6.78-7.06,2.5-2.1,5.29-3.92,8.35-5.01Z"/><path class="cls-26" d="m175.85,417.67l1.45,1.07.72.55c.23.2.44.41.67.61.44.41.89.83,1.32,1.26l1.19,1.4c1.49,1.94,2.7,4.18,3.28,6.65.59,2.47.43,5.11-.29,7.55-.76,2.44-2.07,4.68-3.72,6.57-.4.49-.88.89-1.31,1.34l-.67.66-.72.59c-.49.39-.96.79-1.46,1.16l-1.54,1.01c-2.02,1.32-4.09,2.5-5.86,3.94-1.73,1.45-3.23,3.24-3.41,5.5-.15,1.11,0,2.26.43,3.31.43,1.05,1.26,1.95,2.38,2.4-.58-.13-1.17-.36-1.67-.73-.49-.38-.92-.85-1.24-1.4-.65-1.09-.95-2.37-.95-3.64-.02-.64.1-1.28.24-1.92.17-.62.42-1.26.74-1.81.62-1.13,1.47-2.11,2.37-2.97,1.83-1.75,3.92-2.98,5.83-4.37l1.44-.99c.45-.36.89-.73,1.33-1.1l.66-.55.6-.61c.39-.42.83-.79,1.18-1.24,3.02-3.38,4.72-7.89,3.99-12.39-.39-2.23-1.28-4.38-2.5-6.37l-.96-1.47-1.11-1.38c-.19-.23-.37-.47-.56-.69l-.62-.64-1.23-1.31Z"/><path class="cls-26" d="m190.71,331.82c1.96.88,3.76,2.35,4.93,4.32,1.2,1.96,1.72,4.24,1.72,6.51.01,2.29-.62,4.62-1.8,6.58-1.16,1.98-2.74,3.6-4.4,5.02-3.37,2.82-7.09,4.94-10.69,7.15-3.61,2.2-7.17,4.41-10.33,7.09-3.16,2.65-5.89,5.81-7.65,9.48-.44.91-.82,1.86-1.14,2.82-.17.54-.36,1-.54,1.51-.16.49-.34.97-.49,1.46-.6,1.96-1.02,3.98-1.17,6.02-.35,4.07.43,8.21,2.2,11.97,1.76,3.77,4.39,7.13,7.31,10.2-3.29-2.68-6.24-5.87-8.35-9.67-1.03-1.9-1.87-3.94-2.36-6.07-.5-2.13-.71-4.34-.61-6.53.1-2.2.49-4.37,1.07-6.47.14-.53.31-1.05.47-1.57.17-.5.37-1.02.52-1.49.34-1.05.75-2.08,1.23-3.07,1.9-4,4.85-7.4,8.15-10.19,3.31-2.81,6.96-5.11,10.59-7.31,3.62-2.21,7.3-4.3,10.45-6.93,1.56-1.31,2.97-2.78,3.97-4.47,1.01-1.68,1.53-3.58,1.53-5.53.02-.97-.14-1.96-.29-2.93-.16-.97-.45-1.91-.82-2.83-.74-1.84-2-3.48-3.47-5.07Z"/><path class="cls-26" d="m210.93,270.78c-6.85,1.73-13.38,4.65-19.17,8.62-5.78,3.97-10.81,9.07-14.37,15.06-1.78,2.99-3.17,6.2-4.1,9.54-.95,3.31-1.48,6.85-1.11,10.18.3,3.34,1.72,6.35,4.21,8.58,2.45,2.28,5.65,3.87,8.6,5.89-1.72-.49-3.41-1.03-5.07-1.73-.83-.34-1.65-.73-2.45-1.18-.8-.44-1.58-.94-2.31-1.53-1.48-1.14-2.76-2.65-3.61-4.38-.85-1.73-1.26-3.64-1.35-5.5-.02-.93-.02-1.86.09-2.77.1-.91.27-1.81.39-2.7.11-.9.32-1.77.49-2.66.22-.87.41-1.75.69-2.61,1.02-3.46,2.55-6.75,4.45-9.79,3.79-6.1,9.08-11.16,15.05-15.02,5.98-3.86,12.67-6.56,19.59-8Z"/><path class="cls-26" d="m278.81,335.17c-3.44,1.68-7.18,2.85-11.04,3.34-1.93.23-3.89.31-5.85.18-1.95-.13-3.9-.45-5.8-.94-3.8-1.01-7.42-2.71-10.65-4.95-1.61-1.12-3.14-2.36-4.58-3.7-1.44-1.35-2.74-2.78-3.96-4.43l-1.54-2.1,2.6.46c1.52.27,3.15.44,4.74.55,1.6.11,3.21.18,4.81.17,3.21-.03,6.42-.31,9.56-.96,3.13-.66,6.2-1.67,9-3.24,2.81-1.55,5.32-3.67,7.33-6.26-1.66,2.83-4.05,5.25-6.83,7.08-2.78,1.84-5.92,3.12-9.14,3.95-3.23.84-6.55,1.26-9.87,1.37-3.33.11-6.63-.05-9.98-.59l1.06-1.64c1.05,1.42,2.38,2.81,3.7,4.09,1.35,1.28,2.78,2.48,4.3,3.55,3.04,2.14,6.37,3.88,9.94,4.95,3.55,1.1,7.31,1.54,11.07,1.35,3.76-.17,7.5-1.01,11.14-2.21Z"/><path class="cls-26" d="m170.56,276.04c-6.44,3.51-12.18,8.12-16.83,13.64-2.31,2.77-4.4,5.72-6.13,8.86-1.75,3.14-3.25,6.42-4.15,9.85-.94,3.41-1.35,6.99-.78,10.41.27,1.71.81,3.37,1.62,4.88.79,1.52,1.92,2.9,3.07,4.33,1.14,1.43,2.36,2.89,3.23,4.63.87,1.73,1.31,3.74,1.1,5.65-.19,1.92-.86,3.72-1.75,5.35-.46.81-.95,1.59-1.5,2.34-.55.74-1.14,1.45-1.75,2.13,1.05-1.5,1.99-3.08,2.71-4.74.71-1.65,1.22-3.4,1.23-5.15.07-1.75-.42-3.43-1.28-4.92-.87-1.5-2.05-2.84-3.27-4.21-1.21-1.37-2.49-2.78-3.43-4.5-.97-1.69-1.62-3.54-1.98-5.44-.69-3.81-.25-7.69.71-11.33,1.01-3.65,2.59-7.08,4.46-10.3,1.9-3.21,4.11-6.24,6.64-8.97,5.03-5.47,11.26-9.83,18.09-12.53Z"/></g><ellipse class="cls-6" cx="274.08" cy="137.13" rx="101.1" ry="70.5"/><path class="cls-6" d="m256.74,188.58c-.59,16.79-7.22,33.3-18.41,45.83,8.62-3.78,16.91-8.48,23.97-14.71,7.06-6.23,12.86-14.05,15.88-22.96.16-.47.45-1.05.95-1.01.5.04.16,1.07-.13.67l-22.27-7.81Z"/><path class="cls-25" d="m243.34,127.04c-.7.24-1.33.59-1.87,1.03l-3.51-10.34-10.34,3.51c.02-.7-.08-1.41-.32-2.11-1.07-3.15-4.49-4.83-7.64-3.76-3.15,1.07-4.83,4.49-3.76,7.64.24.7.59,1.33,1.03,1.87l-10.34,3.51,3.51,10.34c-.7-.02-1.41.08-2.11.32-3.15,1.07-4.83,4.49-3.76,7.64,1.07,3.15,4.49,4.83,7.64,3.76.7-.24,1.33-.59,1.87-1.03l3.51,10.34,10.34-3.51c-.02.7.08,1.41.32,2.11,1.07,3.15,4.49,4.83,7.64,3.76,3.15-1.07,4.83-4.49,3.76-7.64-.24-.7-.59-1.33-1.03-1.87l10.34-3.51-3.51-10.34c.7.02,1.41-.08,2.11-.32,3.15-1.07,4.83-4.49,3.76-7.64-1.07-3.15-4.49-4.83-7.64-3.76Z"/><path class="cls-8" d="m286.25,109.87c.57.5,1.02,1.09,1.35,1.72l7.23-8.21-8.2-7.21c-.25.65-.61,1.26-1.1,1.81-2.2,2.5-6,2.74-8.5.54-2.5-2.2-2.74-6-.54-8.5.48-.55,1.05-.99,1.66-1.32l-8.2-7.21-7.22,8.2c-.33-.62-.77-1.18-1.33-1.67-2.5-2.2-6.3-1.95-8.5.54-2.2,2.5-1.95,6.3.54,8.5.56.49,1.18.86,1.83,1.1l-7.22,8.2,8.2,7.22c-.62.33-1.18.77-1.67,1.33-2.2,2.5-1.95,6.3.54,8.5,2.5,2.2,6.3,1.95,8.5-.54.49-.56.86-1.18,1.11-1.83l8.2,7.22,7.23-8.21c-.67-.25-1.31-.62-1.88-1.12-2.5-2.2-2.74-6-.54-8.5,2.2-2.5,6-2.74,8.5-.54Z"/><path class="cls-11" d="m320.12,141.61c-.33.68-.78,1.27-1.3,1.76l9.82,4.82,4.81-9.8c-.69-.07-1.38-.26-2.04-.59-2.99-1.46-4.22-5.07-2.75-8.06,1.46-2.99,5.07-4.22,8.06-2.75.66.32,1.23.75,1.71,1.25l4.81-9.8-9.81-4.81c.51-.48.94-1.06,1.27-1.72,1.46-2.99.23-6.59-2.75-8.06s-6.59-.23-8.06,2.75c-.33.66-.52,1.36-.59,2.05l-9.81-4.81-4.81,9.81c-.48-.51-1.06-.94-1.72-1.27-2.99-1.46-6.59-.23-8.06,2.75-1.46,2.99-.23,6.59,2.75,8.06.66.33,1.36.52,2.05.59l-4.81,9.81,9.82,4.82c.06-.71.26-1.43.59-2.11,1.46-2.99,5.07-4.22,8.06-2.75,2.99,1.46,4.22,5.07,2.75,8.06Z"/><path class="cls-14" d="m300.89,161.63c.68-.09,1.36-.29,2.01-.63,2.95-1.53,4.11-5.16,2.58-8.12-1.53-2.95-5.16-4.11-8.12-2.58-.65.34-1.21.77-1.67,1.28l-5.02-9.69h-.03s-9.67,5.02-9.67,5.02h0s-.03.02-.03.02c.53.48.99,1.05,1.34,1.73.81,1.56.87,3.32.3,4.85-.5,1.35-1.49,2.52-2.87,3.23-2.95,1.53-6.59.38-8.12-2.58-.34-.66-.55-1.36-.63-2.06h0s0,0,0,0l-9.69,5.02h-.03s5.02,9.7,5.02,9.7c-.68.09-1.36.29-2.01.63-2.95,1.53-4.11,5.16-2.58,8.12,1.53,2.95,5.16,4.11,8.12,2.58.65-.34,1.21-.77,1.67-1.28l5.02,9.69h.03s9.67-5.02,9.67-5.02h0s.03-.02.03-.02c-.53-.48-.99-1.05-1.34-1.73-.81-1.56-.87-3.32-.3-4.85.5-1.35,1.49-2.52,2.87-3.23,2.95-1.53,6.59-.38,8.12,2.58.34.66.55,1.36.63,2.06h0s0,0,0,0l9.69-5.02h.03s-5.02-9.7-5.02-9.7Zm-5.2-10.04s-.01.01-.02.02h0s.02-.02.02-.02Zm-29.44,15.24s.01-.01.02-.02h0s-.02.02-.02.02Zm5.2,10.04s.01-.01.02-.02h0s-.02.02-.02.02Zm29.41-15.24s.02,0,.02,0c0,0-.01.01-.02.02h0Z"/><g class="cls-9"><path class="cls-17" d="m1013.56,438.92c22.9-30.93,36.77-60.42,36.25-86.95-.64-32.82-21.92-61.49-53.22-71.38-56.65-17.9-85.56,11.45-85.56,11.45,0,0-23.59,27.94-25.46,51.72-1.01,12.87,7.81,17.07-2.27,28.47-7.31,8.28-15.39,15.26-19.28,18.46-1.52,1.25-2.02,3.37-1.2,5.15,4.38,9.53,12.85,9.37,14.16,12.33,0,0-6.94,58.49,13.2,60.3,7.35.66,17.51-.44,28.13-2.68,5.53,10.68,12.24,28.97,14.89,43.22.83,4.44,3.03,16.42.29,26.51-4.61,16.98-15.65,33.26-15.65,33.26l114.69-28.01c-32.8-43.41-18.98-101.85-18.98-101.85Z"/><path class="cls-12" d="m878.68,422.59c3.46.22,6.84.45,10.21.49,3.37.06,6.71-.04,10.05-.3,3.33-.26,6.66-.67,9.98-1.24,3.32-.55,6.63-1.29,10.01-2.03-2.94,1.86-6.17,3.21-9.5,4.23-3.34,1-6.79,1.64-10.27,1.9-3.48.26-6.99.16-10.44-.32-3.45-.5-6.84-1.34-10.03-2.73Z"/><path class="cls-16" d="m900.2,335.38c4.56-.61,8.14.17,12.16,1.77,1.78.79,3.51,1.78,5.23,2.69,5.41,3.05,10.66,6.63,14.84,11.52,0,0-.23.27-.23.27-22.06-13.05-30.22-11.66-32.33-12.54-1.4-.64-.52-3.62-.52-3.62l.86-.1Z"/><path class="cls-12" d="m918.31,465.8c7.44-1.19,14.69-3.25,21.63-5.98,3.46-1.39,6.84-2.94,10.07-4.77,3.24-1.81,6.34-3.83,9.23-6.12,5.78-4.55,10.74-10.14,14.22-16.59.22-.4.45-.8.66-1.2l.59-1.24c.38-.83.82-1.65,1.12-2.5l1-2.53.78-2.7c1.06-3.6,2.07-7.22,3.16-10.81l.43-1.43,1.27.75c.19.11.49.27.76.39.27.13.56.25.85.35.29.12.58.21.89.3.3.08.59.2.91.25l.92.2c.31.07.62.08.94.13.31.03.63.09.94.1l.95.02c2.54.04,5.1-.52,7.5-1.49l1.8-.77,1.72-.96c.28-.16.58-.31.86-.49l.81-.57,1.63-1.14c1.03-.83,2.04-1.71,3.05-2.58l2.84-2.84-2.52,3.16c-.93.97-1.87,1.95-2.84,2.9l-1.56,1.31-.79.65c-.27.21-.56.38-.85.58l-1.71,1.14c-.6.33-1.22.64-1.83.96-2.49,1.18-5.23,1.97-8.06,2.1-.71.02-1.42.04-2.12-.04-.35-.03-.71-.04-1.06-.1l-1.05-.18c-.35-.05-.7-.16-1.04-.24-.35-.08-.69-.18-1.03-.3-.34-.11-.68-.23-1.02-.37-.35-.14-.65-.28-1.05-.49l1.71-.68c-.91,3.66-1.9,7.31-2.85,10.97l-.72,2.74c-.33.92-.69,1.83-1.03,2.74-.32.93-.77,1.78-1.16,2.66l-.61,1.32c-.22.43-.46.85-.69,1.28-.89,1.72-1.94,3.35-3,4.97l-1.73,2.33c-.59.76-1.24,1.48-1.86,2.23-2.56,2.9-5.39,5.55-8.47,7.86-3.08,2.31-6.34,4.35-9.75,6.09-3.42,1.72-6.94,3.21-10.55,4.41-3.61,1.2-7.29,2.18-11.01,2.9-3.72.72-7.48,1.22-11.25,1.35Z"/><path class="cls-21" d="m904.92,352.13c-2.98-.52-6.34,4.45-7.49,11.11-1.15,6.65.33,12.46,3.31,12.98,2.98.52,6.34-4.45,7.49-11.11.25-1.45.37-2.86.38-4.18l-6.73,1.19,6.36-5.26c-.56-2.64-1.72-4.45-3.33-4.73Z"/><path class="cls-6" d="m908.56,361.69v-.03s0,.02,0,.03h0Z"/><path class="cls-6" d="m908.25,358.24h0s0,.02,0,.02v-.02Z"/><path class="cls-16" d="m1045.21,303.07c-2.51-40.57-63.95-35.37-84.61-43.24-12.37-4.71-23.05-13.14-31.91-22.97-1.47,10.31.26,21.06,4.9,30.39-3.12-3.78-8.41-5.28-13.29-4.77-4.88.51-9.4,2.79-13.49,5.49-5.02,3.32-9.6,7.38-13.13,12.25-7.37,10.18-9.91,23.45-18.28,32.83-7.03,7.88-17.94,12.13-28.45,11.09,24.93,8.25,53.83,3.3,74.59-12.78l123.66-8.29Z"/><path class="cls-16" d="m1045.21,303.07c7.14,1.02,13.41,5.7,17.52,11.63,4.11,5.93,6.25,13.02,7.43,20.13,3.15,18.86-.18,38.73-9.3,55.54-5.69,10.49-13.48,19.68-19.69,29.87-6.21,10.18-10.91,21.98-9.4,33.82-3.71-1.54-6.64-4.84-7.75-8.7-.48,5-.08,10.09,1.2,14.95-7.3-1.06-16.92-11.39-19.6-18.26-3.84-9.83-9.14-27.1-7.55-37.53,1.22-7.98,12.73-6.95,8.29-13.69-2.52-3.83-6.84-6.24-9.17-10.19-2.69-4.56-2.24-10.29-1.05-15.45,1.19-5.16,3.03-10.27,2.85-15.56-.25-7.56-4.59-14.43-5.59-21.93-1.25-9.42,3.36-19.36,11.35-24.49,7.99-5.13,18.96-5.19,27-.13l13.45.02Z"/><path class="cls-17" d="m982.78,386.06c1.02-2.77,2.52-5.37,4.6-7.47,1.41-1.43,3.01-2.66,4.78-3.62,4.76-2.6,11.61-3.9,19.27,2.24,15.72,12.6-13.72,46-31.19,33.43l.27-18.42,2.27-6.16Z"/><g class="cls-1"><path class="cls-17" d="m984.55,395.53s.69-12.15,15.29-15.96c14.6-3.82,11.02,17.98-1.99,23.92-13.01,5.95-16.3,4.06-13.3-7.96Z"/></g><path class="cls-12" d="m988.7,385.78c1.4-1.9,3.09-3.62,5.13-4.95,4.48-3.19,12.14-3.3,15.07,2.06.89,1.61,1.24,3.62.56,5.35.06-2.38-1.13-4.43-2.73-5.8-3.43-2.84-8.35-2.18-12.16-.3-2.02.98-3.92,2.31-5.88,3.64h0Z"/><path class="cls-12" d="m1002.79,379.48c.47,9.63-3.58,19.73-14.81,18.62,7.65.19,12.04-4.63,12.87-11.95.27-2.14.27-4.37.01-6.45l1.93-.21h0Z"/><path class="cls-16" d="m916.46,302.86c-.31,11.42,4.12,22.9,12.03,31.15,7.91,8.25,19.19,13.16,30.61,13.34-3.8-4.51-6.24-10.16-6.9-16.03,4.78,7.59,11.5,13.95,19.34,18.3,4.51,2.51,9.63,4.57,12.47,8.88,2.11,3.2,2.63,7.19,2.66,11.02.04,5.05-.71,10.27-3.41,14.54-2.7,4.27-7.67,7.36-12.67,6.72,10.99,3.8,23.84.92,32.63-6.7,8.78-7.62,13.42-19.56,12.79-31.17-.74-13.73-8.17-26.1-15.67-37.63-2.17-3.34,12.42-18,9.49-20.7-2.98-2.75-23.4,6.57-27.04,4.78-12.65-6.2-26.28-10.39-40.22-12.36l-26.1,15.87Z"/><path class="cls-18" d="m959.1,347.35c-2.76-2.17-4.76-5.22-6.24-8.42-.41-.79-.68-1.63-1-2.46-.33-.83-.54-1.69-.79-2.54-.12-.43-.24-.86-.34-1.29l-.24-1.31-.24-1.31-.12-.65-.07-.66-.21-2.65c-.05-.88-.02-1.77-.02-2.65.02-.88.01-1.76.13-2.64.08-.88.18-1.75.29-2.62.22-1.74.66-3.45,1.02-5.15.51-1.68,1.04-3.34,1.64-4.97-.14,1.75-.39,3.45-.6,5.16l-.2,2.57c-.05.85-.21,1.7-.19,2.55,0,1.71-.19,3.4-.05,5.09.04.85.01,1.69.08,2.53l.25,2.52c.39,3.35,1.1,6.65,2.2,9.84,1.14,3.17,2.59,6.27,4.69,9.04Z"/><path class="cls-18" d="m974.77,312c.26,3.01,1.29,5.84,2.81,8.35,1.5,2.53,3.45,4.76,5.59,6.77,4.33,3.99,9.46,7.11,14.19,10.97,2.34,1.94,4.6,4.09,6.46,6.58,1.83,2.49,3.37,5.29,4.1,8.36.37,1.53.55,3.1.48,4.67-.09,1.57-.38,3.12-.91,4.58-1.05,2.92-2.96,5.5-5.41,7.25,2.14-2.11,3.69-4.74,4.41-7.56.77-2.81.65-5.77-.19-8.51-.84-2.74-2.28-5.29-4.09-7.56-1.79-2.29-3.91-4.3-6.21-6.16-2.27-1.89-4.7-3.64-7.09-5.47-2.38-1.85-4.77-3.74-6.9-5.97-2.14-2.2-4-4.7-5.35-7.46-1.33-2.76-2.11-5.83-1.89-8.85Z"/><path class="cls-18" d="m1004.86,382.53c2.58-3.35,4.55-7.04,6.11-10.86.75-1.92,1.43-3.87,1.92-5.86.52-1.99.93-4,1.15-6.04.26-2.03.41-4.09.37-6.15.04-1.03-.05-2.06-.08-3.09l-.13-1.54c-.03-.52-.08-1.03-.15-1.54-.48-4.11-1.38-8.2-2.51-12.28,1.96,3.75,3.36,7.82,4.16,12.02.84,4.2.96,8.56.46,12.84-.54,4.28-1.77,8.47-3.68,12.33-1.91,3.83-4.4,7.43-7.64,10.18Z"/><path class="cls-18" d="m1033.22,307.52c6.16,5.47,10.92,12.59,13.81,20.42,1.44,3.92,2.4,8.03,2.86,12.19.47,4.16.39,8.38-.1,12.54-.56,4.15-1.56,8.25-3.06,12.17-1.52,3.9-3.36,7.58-4.96,11.32-3.25,7.45-4.61,15.6-5.55,23.77.01-4.12.27-8.24.86-12.34.62-4.09,1.61-8.17,3.13-12.05,1.46-3.89,3.26-7.59,4.61-11.4,1.38-3.79,2.32-7.73,2.83-11.73,1.03-7.99.28-16.21-2.21-23.91-2.52-7.7-6.71-14.87-12.23-20.96Z"/><path class="cls-18" d="m1008.96,307.02c3.57,2.42,6.7,5.52,9.32,9,.63.89,1.26,1.78,1.87,2.68l1.68,2.81c.5.97.98,1.95,1.46,2.93l1.27,3.02,1.04,3.11.84,3.17.6,3.22c.14,1.08.26,2.17.37,3.25.34,4.34.04,8.74-1.05,12.91.2-4.3.01-8.55-.62-12.72-.2-1.04-.39-2.07-.56-3.11l-.72-3.07-.87-3.03-1.04-2.97-1.18-2.92c-.45-.95-.91-1.89-1.35-2.85l-1.49-2.78c-.56-.89-1.1-1.79-1.64-2.7-2.28-3.55-4.95-6.86-7.94-9.96Z"/><path class="cls-18" d="m995.63,306.51c-1-3.01-2.72-5.66-4.64-8.12-1.92-2.47-4.02-4.79-6.28-6.94-2.26-2.14-4.66-4.13-7.21-5.89-2.54-1.78-5.21-3.37-8.01-4.72-2.78-1.39-5.68-2.6-8.58-3.87-2.89-1.3-5.81-2.6-8.57-4.25-2.77-1.63-5.38-3.57-7.62-5.88-2.22-2.32-4.06-5.06-5.03-8.08,1.41,2.84,3.42,5.29,5.76,7.32,2.33,2.06,4.96,3.73,7.7,5.18,2.76,1.42,5.63,2.66,8.55,3.85,2.91,1.21,5.85,2.41,8.73,3.82,2.87,1.44,5.65,3.09,8.24,5,1.29.96,2.55,1.96,3.75,3.02,1.21,1.05,2.37,2.17,3.46,3.34,2.22,2.31,4.2,4.85,5.95,7.51,1.72,2.67,3.24,5.59,3.78,8.73Z"/><path class="cls-18" d="m1022.83,304.87c-.58-4.35-2.01-8.48-4.2-12.12-2.19-3.63-5.18-6.73-8.72-9.01-3.52-2.33-7.52-3.81-11.76-4.44-2.13-.35-4.34-.65-6.5-1.26-2.14-.63-4.27-1.68-5.67-3.41,1.74,1.37,3.81,2.05,5.91,2.38,2.11.35,4.28.42,6.48.63,2.21.16,4.47.62,6.62,1.33,2.14.74,4.2,1.74,6.11,2.98,1.89,1.25,3.64,2.74,5.17,4.41,1.5,1.7,2.83,3.56,3.83,5.58,2.05,4.01,3.06,8.54,2.74,12.93Z"/><path class="cls-8" d="m1021.08,484.78l-4.15-24.44s-52.28-12.55-99.08,40.7l6.41,21.73s-9.51,4.14-16.24,10.91c-27.93,28.07-39.7,103.98-49.61,211.12l45.65-4.46,107.14-127.95.26-107.44,9.61-20.18Z"/><g class="cls-1"><path class="cls-8" d="m1000.01,468.73c-2.11,1.68-.43,3.8.54,5.44-64.62,27.27-117.68,91.6-119.24,162.94,15.11,15.94,40.5,19.21,60.59,14.95,23.49-4.7,44.22-16.06,62.24-31.22l7.07-8.44.26-107.44,9.61-20.18-3.33-19.63c-6.08.02-12.17,1.19-17.74,3.58Z"/></g><path class="cls-14" d="m1094.75,604.06c3.05-58.56-53.6-98.76-60.45-104.55-6.85-5.78-4.24-13.37-4.24-13.37-54.08-10.64-90.46,30.3-90.46,30.3h0c-7.1,5.16-13.77,10.96-20.05,17.06-37.51,36.44-51.46,84.65-57.11,136.64-9.89,90.91.81,157.44,7.11,201.17l204.8.61c17.81-127.13,20.4-267.85,20.4-267.88Z"/><path class="cls-7" d="m1029.79,533.64c-3.63-.61-7.32-.82-10.98-.7-3.66.08-7.31.5-10.88,1.23-3.57.74-7.08,1.77-10.44,3.17-3.37,1.37-6.59,3.1-9.59,5.15-.38.25-.77.49-1.13.76l-1.09.82c-.72.56-1.47,1.06-2.15,1.68l-2.07,1.78-1.95,1.9c-.67.62-1.27,1.3-1.88,1.98-.6.69-1.25,1.33-1.81,2.05-1.12,1.43-2.31,2.83-3.32,4.35-4.21,5.97-7.57,12.56-10.26,19.42,2.17-7.04,5.21-13.87,9.34-20.05,4.07-6.21,9.34-11.69,15.53-15.86,6.17-4.21,13.3-6.95,20.62-8.23,3.66-.64,7.38-.92,11.09-.83,1.85.04,3.7.19,5.53.4,1.83.22,3.66.52,5.44,1Z"/><path class="cls-7" d="m1046.28,542.61c4.51,3.45,8.3,7.78,11.59,12.4,1.64,2.32,3.13,4.75,4.51,7.24,1.38,2.49,2.57,5.08,3.68,7.7,4.29,10.56,6.34,21.97,6.48,33.36.08,5.7-.3,11.4-1.05,17.04l-.62,4.23-.69,4.19-1.38,8.39-5.38,33.58-10.77,67.16-5.43,33.58-5.54,33.56c1.56-11.23,3.23-22.45,4.84-33.67l5.03-33.64c3.39-22.42,6.92-44.82,10.45-67.22l5.5-33.57,1.41-8.39.71-4.19.63-4.19c.75-5.59,1.18-11.23,1.18-16.87,0-11.27-1.91-22.58-6.03-33.11-1.06-2.61-2.19-5.21-3.51-7.7-1.32-2.5-2.76-4.93-4.34-7.28-1.59-2.34-3.32-4.58-5.19-6.71-1.88-2.11-3.86-4.15-6.09-5.91Z"/><path class="cls-7" d="m959.05,597.92l-1.2,25.13-1.3,25.13-2.71,50.25-5.63,100.48c.18-8.39.45-16.77.72-25.15l1-25.14c.33-8.38.78-16.76,1.19-25.13l1.29-25.13c.98-16.75,1.94-33.49,3.04-50.23l1.7-25.1c.63-8.36,1.21-16.73,1.9-25.09Z"/><g class="cls-3"><path class="cls-14" d="m1029.63,517.28c36.01,20.97,53.82,55.15,64.98,92.74.1-3.87.14-5.96.14-5.96,3.05-58.56-53.6-98.76-60.45-104.55s-4.24-13.37-4.24-13.37c-8.59-1.69-16.73-2.08-24.35-1.53-1.24,4.29-1.27,8.75.98,13.45,4.8,9.07,13.87,13.87,22.95,19.21Z"/></g></g><ellipse class="cls-6" cx="941.65" cy="140.97" rx="101.1" ry="70.5"/><path class="cls-6" d="m958.99,192.43c.59,16.79,7.22,33.3,18.41,45.83-8.62-3.78-16.91-8.48-23.97-14.71-7.06-6.23-12.86-14.05-15.88-22.96-.16-.47-.45-1.05-.95-1.01-.5.04-.16,1.07.13.67l22.27-7.81Z"/><path class="cls-25" d="m983.78,151.89c-.89,0-1.73.16-2.52.45v-13.07h-13.07c.29-.78.45-1.63.45-2.52,0-3.98-3.23-7.2-7.2-7.2s-7.2,3.23-7.2,7.2c0,.89.16,1.73.45,2.52h-13.07v13.07c-.78-.29-1.63-.45-2.52-.45-3.98,0-7.2,3.23-7.2,7.2s3.23,7.2,7.2,7.2c.88,0,1.73-.16,2.52-.45v13.07h13.07c-.29.78-.45,1.63-.45,2.52,0,3.98,3.23,7.2,7.2,7.2s7.2-3.23,7.2-7.2c0-.89-.16-1.73-.45-2.52h13.07v-13.07c.78.29,1.63.45,2.52.45,3.98,0,7.2-3.23,7.2-7.2s-3.23-7.2-7.2-7.2Z"/><path class="cls-8" d="m939.11,151.89c.91,0,1.77.17,2.57.48v-13.09h-13.06c.29.78.45,1.62.45,2.5,0,3.98-3.23,7.2-7.2,7.2s-7.2-3.23-7.2-7.2c0-.88.16-1.72.45-2.5h-13.06v13.07c-.78-.29-1.63-.45-2.52-.45-3.98,0-7.2,3.23-7.2,7.2s3.23,7.2,7.2,7.2c.88,0,1.73-.16,2.52-.45v13.07h13.07c-.29.78-.45,1.63-.45,2.52,0,3.98,3.23,7.2,7.2,7.2s7.2-3.23,7.2-7.2c0-.89-.16-1.73-.45-2.52h13.07v-13.09c-.8.31-1.67.47-2.57.47-3.98,0-7.2-3.23-7.2-7.2s3.23-7.2,7.2-7.2Z"/><path class="cls-11" d="m968.65,136.7c0,.91-.17,1.77-.47,2.57h13.09v-13.06c-.78.29-1.62.45-2.5.45-3.98,0-7.2-3.23-7.2-7.2s3.23-7.2,7.2-7.2c.88,0,1.72.16,2.5.45v-13.06h-13.07c.29-.78.45-1.63.45-2.52,0-3.98-3.23-7.2-7.2-7.2s-7.2,3.23-7.2,7.2c0,.88.16,1.73.45,2.52h-13.07v13.07c-.78-.29-1.63-.45-2.52-.45-3.98,0-7.2,3.23-7.2,7.2s3.23,7.2,7.2,7.2c.88,0,1.73-.16,2.52-.45v13.07h13.09c-.31-.8-.47-1.67-.47-2.57,0-3.98,3.23-7.2,7.2-7.2s7.2,3.23,7.2,7.2Z"/><path class="cls-14" d="m928.57,99.6c.28-.77.44-1.61.44-2.48,0-3.98-3.23-7.2-7.2-7.2s-7.2,3.23-7.2,7.2c0,.87.16,1.71.44,2.48h-13.06v13.07h0v.06c.8-.31,1.67-.47,2.57-.47,2.11,0,4,.9,5.32,2.34,1.15,1.28,1.86,2.97,1.86,4.83,0,3.98-3.23,7.2-7.2,7.2-.89,0-1.75-.16-2.54-.46h0v13.11h13.06c-.28.77-.44,1.61-.44,2.48,0,3.98,3.23,7.2,7.2,7.2s7.2-3.23,7.2-7.2c0-.87-.16-1.71-.44-2.48h13.06v-13.07h0v-.06c-.8.31-1.67.47-2.57.47-2.11,0-4-.9-5.32-2.34-1.15-1.28-1.86-2.97-1.86-4.83,0-3.98,3.23-7.2,7.2-7.2.89,0,1.75.16,2.54.46h0v-13.11h-13.06Zm-13.52,0s0,.02,0,.03h-.02s0-.02,0-.03Zm0,39.66s0-.02,0-.03h.02s0,.02,0,.03Zm13.52,0s0-.02,0-.03h.02s0,.02,0,.03Zm0-39.63s0-.02,0-.03c0,0,0,.02,0,.03h-.02Z"/><polygon class="cls-7" points="679.11 62.77 672.16 62.77 672.16 55.83 664.44 55.83 664.44 62.77 657.5 62.77 657.5 70.49 664.44 70.49 664.44 77.43 672.16 77.43 672.16 70.49 679.11 70.49 679.11 62.77"/><polygon class="cls-7" points="133.96 191.9 127.02 191.9 127.02 184.96 119.3 184.96 119.3 191.9 112.35 191.9 112.35 199.62 119.3 199.62 119.3 206.56 127.02 206.56 127.02 199.62 133.96 199.62 133.96 191.9"/><path class="cls-6" d="m395.6,367.15l-2.99-8.09c-.33-.9-1.03-1.63-1.91-2.01l-6.77-2.89,6.77-2.89c.88-.38,1.58-1.11,1.91-2.01l2.99-8.09,2.99,8.09c.33.9,1.03,1.63,1.91,2.01l6.77,2.89-6.77,2.89c-.88.38-1.58,1.11-1.91,2.01l-2.99,8.09Zm-7.43-12.99l3.18,1.36c1.3.56,2.33,1.64,2.82,2.96l1.43,3.87,1.43-3.87c.49-1.33,1.52-2.41,2.82-2.96l3.18-1.36-3.18-1.36c-1.3-.56-2.33-1.63-2.82-2.96l-1.43-3.87-1.43,3.87c-.49,1.33-1.52,2.41-2.82,2.96l-3.18,1.36Z"/><path class="cls-6" d="m464.13,118.05l-2.99-8.09c-.33-.9-1.03-1.63-1.91-2.01l-6.77-2.89,6.77-2.89c.88-.38,1.58-1.11,1.91-2.01l2.99-8.09,2.99,8.09c.33.9,1.03,1.63,1.91,2.01l6.77,2.89-6.77,2.89c-.88.38-1.58,1.11-1.91,2.01l-2.99,8.09Zm-7.43-12.99l3.18,1.36c1.3.56,2.33,1.64,2.82,2.96l1.43,3.87,1.43-3.87c.49-1.33,1.52-2.41,2.82-2.96l3.18-1.36-3.18-1.36c-1.3-.56-2.33-1.64-2.82-2.96l-1.43-3.87-1.43,3.87c-.49,1.33-1.52,2.41-2.82,2.96l-3.18,1.36Z"/><path class="cls-6" d="m1090.77,247.41l-2.99-8.09c-.33-.9-1.03-1.63-1.91-2.01l-6.77-2.89,6.77-2.89c.88-.38,1.58-1.11,1.91-2.01l2.99-8.09,2.99,8.09c.33.9,1.03,1.63,1.91,2.01l6.77,2.89-6.77,2.89c-.88.38-1.58,1.11-1.91,2.01l-2.99,8.09Zm-7.43-12.99l3.18,1.36c1.3.56,2.33,1.64,2.82,2.96l1.43,3.87,1.43-3.87c.49-1.33,1.52-2.41,2.82-2.96l3.18-1.36-3.18-1.36c-1.3-.56-2.33-1.64-2.82-2.96l-1.43-3.87-1.43,3.87c-.49,1.33-1.52,2.41-2.82,2.96l-3.18,1.36Z"/><path class="cls-6" d="m788.49,116.22l-2.99-8.09c-.33-.9-1.03-1.63-1.91-2.01l-6.77-2.89,6.77-2.89c.88-.38,1.58-1.11,1.91-2.01l2.99-8.09,2.99,8.09c.33.9,1.03,1.63,1.91,2.01l6.77,2.89-6.77,2.89c-.88.38-1.58,1.11-1.91,2.01l-2.99,8.09Zm-7.43-12.99l3.18,1.36c1.3.56,2.33,1.64,2.82,2.96l1.43,3.87,1.43-3.87c.49-1.33,1.52-2.41,2.82-2.96l3.18-1.36-3.18-1.36c-1.3-.56-2.33-1.64-2.82-2.96l-1.43-3.87-1.43,3.87c-.49,1.33-1.52,2.41-2.82,2.96l-3.18,1.36Z"/></g></g></svg>